# xmcd CD database file
#
# Track frame offsets:
#	150
#	19150
#	35108
#	48796
#	64512
#	80906
#	100393
#	112647
#	126196
#	138155
#
# Disc length: 2093 seconds
#
# Revision: 0
# Processed by: cddbd v1.5.2PL0 Copyright (c) Steve Scherf et al.
# Submitted via: CDex 1.78
#
DISCID=7f082b0a
DTITLE=The Soundalikes - Reckless
DYEAR=2001
DGENRE=Country
TTITLE0=The Woman In Me
TTITLE1=Ten Feet Tall and Bulletproof
TTITLE2=Passionate Kisses
TTITLE3=Reckless
TTITLE4=You Light Up My Life
TTITLE5=Friends In Low Places
TTITLE6=Wild One
TTITLE7=Hard Workin' Man
TTITLE8=I Try To Think About Elvis
TTITLE9=Gone Country
EXTD=YEAR: 2001
EXTT0=
EXTT1=
EXTT2=
EXTT3=
EXTT4=
EXTT5=
EXTT6=
EXTT7=
EXTT8=
EXTT9=
PLAYORDER=
